<mxfile host="app.diagrams.net" modified="2024-03-13T19:37:54.831Z" agent="Mozilla/5.0 (Windows NT 10.0; Win64; x64; rv:123.0) Gecko/20100101 Firefox/123.0" etag="8h73OAiYoO9hHaWneDzv" version="24.0.6" type="device" pages="3">
  <diagram id="n-122BE3eR8M-A2S6Jvh" name="BMNP">
    <mxGraphModel dx="28" dy="628" grid="1" gridSize="10" guides="1" tooltips="1" connect="1" arrows="1" fold="1" page="1" pageScale="1" pageWidth="850" pageHeight="1100" math="0" shadow="0">
      <root>
        <mxCell id="0" />
        <mxCell id="1" parent="0" />
        <mxCell id="rnlNIk4AzkPNb7HqihP6-1" value="Пользователь (Неавторизованный)" style="swimlane;startSize=20;horizontal=0;" parent="1" vertex="1">
          <mxGeometry x="1960" y="1000" width="1170" height="570" as="geometry" />
        </mxCell>
        <mxCell id="rnlNIk4AzkPNb7HqihP6-2" style="edgeStyle=none;rounded=0;orthogonalLoop=1;jettySize=auto;html=1;entryX=0;entryY=0.5;entryDx=0;entryDy=0;entryPerimeter=0;endArrow=block;endFill=1;" parent="rnlNIk4AzkPNb7HqihP6-1" source="rnlNIk4AzkPNb7HqihP6-3" target="rnlNIk4AzkPNb7HqihP6-7" edge="1">
          <mxGeometry relative="1" as="geometry" />
        </mxCell>
        <mxCell id="rnlNIk4AzkPNb7HqihP6-3" value="Авторизоваться" style="points=[[0.145,0.145,0],[0.5,0,0],[0.855,0.145,0],[1,0.5,0],[0.855,0.855,0],[0.5,1,0],[0.145,0.855,0],[0,0.5,0]];shape=mxgraph.bpmn.event;html=1;verticalLabelPosition=bottom;labelBackgroundColor=#ffffff;verticalAlign=top;align=center;perimeter=ellipsePerimeter;outlineConnect=0;aspect=fixed;outline=standard;symbol=general;" parent="rnlNIk4AzkPNb7HqihP6-1" vertex="1">
          <mxGeometry x="42.25" y="259.75" width="44.5" height="44.5" as="geometry" />
        </mxCell>
        <mxCell id="rnlNIk4AzkPNb7HqihP6-4" style="edgeStyle=orthogonalEdgeStyle;rounded=0;orthogonalLoop=1;jettySize=auto;html=1;entryX=0;entryY=0.5;entryDx=0;entryDy=0;fontSize=13;endArrow=block;endFill=1;" parent="rnlNIk4AzkPNb7HqihP6-1" source="rnlNIk4AzkPNb7HqihP6-7" target="rnlNIk4AzkPNb7HqihP6-10" edge="1">
          <mxGeometry relative="1" as="geometry">
            <Array as="points">
              <mxPoint x="210" y="282" />
              <mxPoint x="210" y="385" />
            </Array>
          </mxGeometry>
        </mxCell>
        <mxCell id="rnlNIk4AzkPNb7HqihP6-5" style="edgeStyle=orthogonalEdgeStyle;rounded=0;orthogonalLoop=1;jettySize=auto;html=1;entryX=0;entryY=0.5;entryDx=0;entryDy=0;fontSize=13;endArrow=block;endFill=1;" parent="rnlNIk4AzkPNb7HqihP6-1" source="rnlNIk4AzkPNb7HqihP6-7" target="rnlNIk4AzkPNb7HqihP6-14" edge="1">
          <mxGeometry relative="1" as="geometry">
            <Array as="points">
              <mxPoint x="210" y="282" />
              <mxPoint x="210" y="85" />
            </Array>
          </mxGeometry>
        </mxCell>
        <mxCell id="rnlNIk4AzkPNb7HqihP6-6" value="Да" style="edgeLabel;html=1;align=center;verticalAlign=middle;resizable=0;points=[];fontSize=13;" parent="rnlNIk4AzkPNb7HqihP6-5" vertex="1" connectable="0">
          <mxGeometry x="0.0873" y="-2" relative="1" as="geometry">
            <mxPoint x="-17" as="offset" />
          </mxGeometry>
        </mxCell>
        <mxCell id="rnlNIk4AzkPNb7HqihP6-7" value="" style="points=[[0.25,0.25,0],[0.5,0,0],[0.75,0.25,0],[1,0.5,0],[0.75,0.75,0],[0.5,1,0],[0.25,0.75,0],[0,0.5,0]];shape=mxgraph.bpmn.gateway2;html=1;verticalLabelPosition=bottom;labelBackgroundColor=#ffffff;verticalAlign=top;align=center;perimeter=rhombusPerimeter;outlineConnect=0;outline=none;symbol=none;gwType=exclusive;" parent="rnlNIk4AzkPNb7HqihP6-1" vertex="1">
          <mxGeometry x="140" y="257" width="50" height="50" as="geometry" />
        </mxCell>
        <mxCell id="rnlNIk4AzkPNb7HqihP6-8" value="&lt;font style=&quot;font-size: 13px;&quot;&gt;Зарегестрирован &lt;br&gt;ли пользователь?&lt;/font&gt;" style="text;html=1;align=center;verticalAlign=middle;resizable=0;points=[];autosize=1;strokeColor=none;fillColor=none;" parent="rnlNIk4AzkPNb7HqihP6-1" vertex="1">
          <mxGeometry x="220" y="259.75" width="130" height="40" as="geometry" />
        </mxCell>
        <mxCell id="rnlNIk4AzkPNb7HqihP6-9" style="edgeStyle=orthogonalEdgeStyle;rounded=0;orthogonalLoop=1;jettySize=auto;html=1;entryX=0;entryY=0.5;entryDx=0;entryDy=0;fontSize=13;endArrow=block;endFill=1;" parent="rnlNIk4AzkPNb7HqihP6-1" source="rnlNIk4AzkPNb7HqihP6-10" target="rnlNIk4AzkPNb7HqihP6-12" edge="1">
          <mxGeometry relative="1" as="geometry" />
        </mxCell>
        <mxCell id="rnlNIk4AzkPNb7HqihP6-10" value="Перейти на окно регистрации" style="rounded=1;whiteSpace=wrap;html=1;container=1;collapsible=0;absoluteArcSize=1;arcSize=20;childLayout=stackLayout;horizontal=1;horizontalStack=0;resizeParent=1;resizeParentMax=0;resizeLast=0;fontSize=13;" parent="rnlNIk4AzkPNb7HqihP6-1" vertex="1">
          <mxGeometry x="270" y="350" width="100" height="70" as="geometry" />
        </mxCell>
        <mxCell id="rnlNIk4AzkPNb7HqihP6-11" style="edgeStyle=orthogonalEdgeStyle;rounded=0;orthogonalLoop=1;jettySize=auto;html=1;fontSize=13;endArrow=block;endFill=1;" parent="rnlNIk4AzkPNb7HqihP6-1" source="rnlNIk4AzkPNb7HqihP6-12" target="rnlNIk4AzkPNb7HqihP6-28" edge="1">
          <mxGeometry relative="1" as="geometry" />
        </mxCell>
        <mxCell id="rnlNIk4AzkPNb7HqihP6-12" value="Вести данные для регистрации" style="rounded=1;whiteSpace=wrap;html=1;container=1;collapsible=0;absoluteArcSize=1;arcSize=20;childLayout=stackLayout;horizontal=1;horizontalStack=0;resizeParent=1;resizeParentMax=0;resizeLast=0;fontSize=13;" parent="rnlNIk4AzkPNb7HqihP6-1" vertex="1">
          <mxGeometry x="420" y="350" width="100" height="70" as="geometry" />
        </mxCell>
        <mxCell id="rnlNIk4AzkPNb7HqihP6-13" style="edgeStyle=orthogonalEdgeStyle;rounded=0;orthogonalLoop=1;jettySize=auto;html=1;fontSize=13;endArrow=block;endFill=1;" parent="rnlNIk4AzkPNb7HqihP6-1" source="rnlNIk4AzkPNb7HqihP6-14" target="rnlNIk4AzkPNb7HqihP6-16" edge="1">
          <mxGeometry relative="1" as="geometry">
            <mxPoint x="445" y="85" as="targetPoint" />
          </mxGeometry>
        </mxCell>
        <mxCell id="rnlNIk4AzkPNb7HqihP6-14" value="Вести логин и пароль" style="rounded=1;whiteSpace=wrap;html=1;container=1;collapsible=0;absoluteArcSize=1;arcSize=20;childLayout=stackLayout;horizontal=1;horizontalStack=0;resizeParent=1;resizeParentMax=0;resizeLast=0;fontSize=13;" parent="rnlNIk4AzkPNb7HqihP6-1" vertex="1">
          <mxGeometry x="295" y="50" width="100" height="70" as="geometry" />
        </mxCell>
        <mxCell id="rnlNIk4AzkPNb7HqihP6-15" value="" style="edgeStyle=orthogonalEdgeStyle;rounded=0;orthogonalLoop=1;jettySize=auto;html=1;fontSize=13;endArrow=block;endFill=1;entryX=0;entryY=0.5;entryDx=0;entryDy=0;" parent="rnlNIk4AzkPNb7HqihP6-1" source="rnlNIk4AzkPNb7HqihP6-16" target="rnlNIk4AzkPNb7HqihP6-18" edge="1">
          <mxGeometry relative="1" as="geometry">
            <mxPoint x="540" y="85" as="targetPoint" />
          </mxGeometry>
        </mxCell>
        <mxCell id="rnlNIk4AzkPNb7HqihP6-16" value="Отправить данные&lt;br&gt;на проверку" style="points=[[0.145,0.145,0],[0.5,0,0],[0.855,0.145,0],[1,0.5,0],[0.855,0.855,0],[0.5,1,0],[0.145,0.855,0],[0,0.5,0]];shape=mxgraph.bpmn.event;html=1;verticalLabelPosition=bottom;labelBackgroundColor=#ffffff;verticalAlign=top;align=center;perimeter=ellipsePerimeter;outlineConnect=0;aspect=fixed;outline=catching;symbol=message;fontSize=13;" parent="rnlNIk4AzkPNb7HqihP6-1" vertex="1">
          <mxGeometry x="445" y="60" width="50" height="50" as="geometry" />
        </mxCell>
        <mxCell id="rnlNIk4AzkPNb7HqihP6-17" style="edgeStyle=orthogonalEdgeStyle;rounded=0;orthogonalLoop=1;jettySize=auto;html=1;entryX=0;entryY=0.5;entryDx=0;entryDy=0;entryPerimeter=0;fontSize=13;endArrow=block;endFill=1;" parent="rnlNIk4AzkPNb7HqihP6-1" source="rnlNIk4AzkPNb7HqihP6-18" target="rnlNIk4AzkPNb7HqihP6-21" edge="1">
          <mxGeometry relative="1" as="geometry" />
        </mxCell>
        <mxCell id="rnlNIk4AzkPNb7HqihP6-18" value="Проверка соотвествия логина и пароля" style="rounded=1;whiteSpace=wrap;html=1;container=1;collapsible=0;absoluteArcSize=1;arcSize=20;childLayout=stackLayout;horizontal=1;horizontalStack=0;resizeParent=1;resizeParentMax=0;resizeLast=0;fontSize=13;" parent="rnlNIk4AzkPNb7HqihP6-1" vertex="1">
          <mxGeometry x="680" y="50" width="100" height="70" as="geometry" />
        </mxCell>
        <mxCell id="rnlNIk4AzkPNb7HqihP6-19" style="edgeStyle=orthogonalEdgeStyle;rounded=0;orthogonalLoop=1;jettySize=auto;html=1;entryX=0;entryY=0.5;entryDx=0;entryDy=0;fontSize=13;endArrow=block;endFill=1;" parent="rnlNIk4AzkPNb7HqihP6-1" source="rnlNIk4AzkPNb7HqihP6-21" target="rnlNIk4AzkPNb7HqihP6-23" edge="1">
          <mxGeometry relative="1" as="geometry" />
        </mxCell>
        <mxCell id="rnlNIk4AzkPNb7HqihP6-20" value="Да" style="edgeLabel;html=1;align=center;verticalAlign=middle;resizable=0;points=[];fontSize=13;" parent="rnlNIk4AzkPNb7HqihP6-19" vertex="1" connectable="0">
          <mxGeometry x="-0.281" y="1" relative="1" as="geometry">
            <mxPoint y="-14" as="offset" />
          </mxGeometry>
        </mxCell>
        <mxCell id="rnlNIk4AzkPNb7HqihP6-21" value="" style="points=[[0.25,0.25,0],[0.5,0,0],[0.75,0.25,0],[1,0.5,0],[0.75,0.75,0],[0.5,1,0],[0.25,0.75,0],[0,0.5,0]];shape=mxgraph.bpmn.gateway2;html=1;verticalLabelPosition=bottom;labelBackgroundColor=#ffffff;verticalAlign=top;align=center;perimeter=rhombusPerimeter;outlineConnect=0;outline=none;symbol=none;gwType=exclusive;" parent="rnlNIk4AzkPNb7HqihP6-1" vertex="1">
          <mxGeometry x="855" y="60" width="50" height="50" as="geometry" />
        </mxCell>
        <mxCell id="rnlNIk4AzkPNb7HqihP6-22" value="&lt;span style=&quot;font-size: 13px;&quot;&gt;Авторизация прошла&amp;nbsp;&lt;br&gt;&lt;/span&gt;успешна?" style="text;html=1;align=center;verticalAlign=middle;resizable=0;points=[];autosize=1;strokeColor=none;fillColor=none;" parent="rnlNIk4AzkPNb7HqihP6-1" vertex="1">
          <mxGeometry x="780" y="10" width="160" height="40" as="geometry" />
        </mxCell>
        <mxCell id="rnlNIk4AzkPNb7HqihP6-23" value="Перевести пользователя на главную страницу" style="rounded=1;whiteSpace=wrap;html=1;container=1;collapsible=0;absoluteArcSize=1;arcSize=20;childLayout=stackLayout;horizontal=1;horizontalStack=0;resizeParent=1;resizeParentMax=0;resizeLast=0;fontSize=13;" parent="rnlNIk4AzkPNb7HqihP6-1" vertex="1">
          <mxGeometry x="940" y="50" width="100" height="70" as="geometry" />
        </mxCell>
        <mxCell id="rnlNIk4AzkPNb7HqihP6-24" style="edgeStyle=orthogonalEdgeStyle;rounded=0;orthogonalLoop=1;jettySize=auto;html=1;fontSize=13;endArrow=block;endFill=1;" parent="rnlNIk4AzkPNb7HqihP6-1" source="rnlNIk4AzkPNb7HqihP6-25" target="rnlNIk4AzkPNb7HqihP6-14" edge="1">
          <mxGeometry relative="1" as="geometry" />
        </mxCell>
        <mxCell id="rnlNIk4AzkPNb7HqihP6-25" value="Сообщить об ошибке" style="rounded=1;whiteSpace=wrap;html=1;container=1;collapsible=0;absoluteArcSize=1;arcSize=20;childLayout=stackLayout;horizontal=1;horizontalStack=0;resizeParent=1;resizeParentMax=0;resizeLast=0;fontSize=13;" parent="rnlNIk4AzkPNb7HqihP6-1" vertex="1">
          <mxGeometry x="550" y="175" width="100" height="70" as="geometry" />
        </mxCell>
        <mxCell id="rnlNIk4AzkPNb7HqihP6-26" style="edgeStyle=orthogonalEdgeStyle;rounded=0;orthogonalLoop=1;jettySize=auto;html=1;fontSize=13;endArrow=block;endFill=1;entryX=1;entryY=0.5;entryDx=0;entryDy=0;exitX=0.5;exitY=1;exitDx=0;exitDy=0;exitPerimeter=0;" parent="rnlNIk4AzkPNb7HqihP6-1" source="rnlNIk4AzkPNb7HqihP6-21" target="rnlNIk4AzkPNb7HqihP6-25" edge="1">
          <mxGeometry relative="1" as="geometry">
            <mxPoint x="950" y="320" as="targetPoint" />
            <Array as="points">
              <mxPoint x="880" y="210" />
            </Array>
          </mxGeometry>
        </mxCell>
        <mxCell id="rnlNIk4AzkPNb7HqihP6-27" style="edgeStyle=orthogonalEdgeStyle;rounded=0;orthogonalLoop=1;jettySize=auto;html=1;entryX=0;entryY=0.5;entryDx=0;entryDy=0;fontSize=13;endArrow=block;endFill=1;" parent="rnlNIk4AzkPNb7HqihP6-1" source="rnlNIk4AzkPNb7HqihP6-37" target="rnlNIk4AzkPNb7HqihP6-30" edge="1">
          <mxGeometry relative="1" as="geometry">
            <mxPoint x="700" y="385" as="targetPoint" />
          </mxGeometry>
        </mxCell>
        <mxCell id="rnlNIk4AzkPNb7HqihP6-28" value="Отправить данные&lt;br&gt;на проверку" style="points=[[0.145,0.145,0],[0.5,0,0],[0.855,0.145,0],[1,0.5,0],[0.855,0.855,0],[0.5,1,0],[0.145,0.855,0],[0,0.5,0]];shape=mxgraph.bpmn.event;html=1;verticalLabelPosition=bottom;labelBackgroundColor=#ffffff;verticalAlign=top;align=center;perimeter=ellipsePerimeter;outlineConnect=0;aspect=fixed;outline=catching;symbol=message;fontSize=13;noLabel=0;portConstraintRotation=0;fixDash=0;container=0;dropTarget=1;collapsible=1;backgroundOutline=0;resizeWidth=0;treeFolding=0;treeMoving=0;" parent="rnlNIk4AzkPNb7HqihP6-1" vertex="1">
          <mxGeometry x="575" y="360" width="50" height="50" as="geometry" />
        </mxCell>
        <mxCell id="rnlNIk4AzkPNb7HqihP6-29" style="edgeStyle=orthogonalEdgeStyle;rounded=0;orthogonalLoop=1;jettySize=auto;html=1;fontSize=13;endArrow=block;endFill=1;" parent="rnlNIk4AzkPNb7HqihP6-1" source="rnlNIk4AzkPNb7HqihP6-30" target="rnlNIk4AzkPNb7HqihP6-33" edge="1">
          <mxGeometry relative="1" as="geometry" />
        </mxCell>
        <mxCell id="rnlNIk4AzkPNb7HqihP6-30" value="Проверка результатов регистрации" style="rounded=1;whiteSpace=wrap;html=1;container=1;collapsible=0;absoluteArcSize=1;arcSize=20;childLayout=stackLayout;horizontal=1;horizontalStack=0;resizeParent=1;resizeParentMax=0;resizeLast=0;fontSize=13;" parent="rnlNIk4AzkPNb7HqihP6-1" vertex="1">
          <mxGeometry x="855" y="350" width="100" height="70" as="geometry" />
        </mxCell>
        <mxCell id="rnlNIk4AzkPNb7HqihP6-31" style="edgeStyle=orthogonalEdgeStyle;rounded=0;orthogonalLoop=1;jettySize=auto;html=1;entryX=0.5;entryY=1;entryDx=0;entryDy=0;fontSize=13;endArrow=block;endFill=1;" parent="rnlNIk4AzkPNb7HqihP6-1" source="rnlNIk4AzkPNb7HqihP6-33" target="rnlNIk4AzkPNb7HqihP6-23" edge="1">
          <mxGeometry relative="1" as="geometry" />
        </mxCell>
        <mxCell id="rnlNIk4AzkPNb7HqihP6-32" style="edgeStyle=orthogonalEdgeStyle;rounded=0;orthogonalLoop=1;jettySize=auto;html=1;entryX=1;entryY=0.5;entryDx=0;entryDy=0;fontSize=13;endArrow=block;endFill=1;" parent="rnlNIk4AzkPNb7HqihP6-1" source="rnlNIk4AzkPNb7HqihP6-33" target="rnlNIk4AzkPNb7HqihP6-35" edge="1">
          <mxGeometry relative="1" as="geometry">
            <Array as="points">
              <mxPoint x="990" y="505" />
            </Array>
          </mxGeometry>
        </mxCell>
        <mxCell id="rnlNIk4AzkPNb7HqihP6-33" value="" style="points=[[0.25,0.25,0],[0.5,0,0],[0.75,0.25,0],[1,0.5,0],[0.75,0.75,0],[0.5,1,0],[0.25,0.75,0],[0,0.5,0]];shape=mxgraph.bpmn.gateway2;html=1;verticalLabelPosition=bottom;labelBackgroundColor=#ffffff;verticalAlign=top;align=center;perimeter=rhombusPerimeter;outlineConnect=0;outline=none;symbol=none;gwType=exclusive;" parent="rnlNIk4AzkPNb7HqihP6-1" vertex="1">
          <mxGeometry x="965" y="360" width="50" height="50" as="geometry" />
        </mxCell>
        <mxCell id="rnlNIk4AzkPNb7HqihP6-34" style="edgeStyle=orthogonalEdgeStyle;rounded=0;orthogonalLoop=1;jettySize=auto;html=1;fontSize=13;endArrow=block;endFill=1;" parent="rnlNIk4AzkPNb7HqihP6-1" source="rnlNIk4AzkPNb7HqihP6-35" target="rnlNIk4AzkPNb7HqihP6-12" edge="1">
          <mxGeometry relative="1" as="geometry" />
        </mxCell>
        <mxCell id="rnlNIk4AzkPNb7HqihP6-35" value="Сообщить об ошибке" style="rounded=1;whiteSpace=wrap;html=1;container=1;collapsible=0;absoluteArcSize=1;arcSize=20;childLayout=stackLayout;horizontal=1;horizontalStack=0;resizeParent=1;resizeParentMax=0;resizeLast=0;fontSize=13;" parent="rnlNIk4AzkPNb7HqihP6-1" vertex="1">
          <mxGeometry x="580" y="470" width="100" height="70" as="geometry" />
        </mxCell>
        <mxCell id="rnlNIk4AzkPNb7HqihP6-36" style="edgeStyle=orthogonalEdgeStyle;rounded=0;orthogonalLoop=1;jettySize=auto;html=1;fontSize=13;endArrow=block;endFill=0;dashed=1;startArrow=oval;startFill=0;jumpSize=6;startSize=10;entryX=0.5;entryY=0;entryDx=0;entryDy=0;" parent="rnlNIk4AzkPNb7HqihP6-1" target="rnlNIk4AzkPNb7HqihP6-18" edge="1">
          <mxGeometry relative="1" as="geometry">
            <mxPoint x="729.58" y="-40" as="sourcePoint" />
            <mxPoint x="729.58" y="350" as="targetPoint" />
            <Array as="points" />
          </mxGeometry>
        </mxCell>
        <mxCell id="rnlNIk4AzkPNb7HqihP6-37" value="Поверка email на корректность и наличие в БД" style="rounded=1;whiteSpace=wrap;html=1;container=1;collapsible=0;absoluteArcSize=1;arcSize=20;childLayout=stackLayout;horizontal=1;horizontalStack=0;resizeParent=1;resizeParentMax=0;resizeLast=0;fontSize=13;" parent="rnlNIk4AzkPNb7HqihP6-1" vertex="1">
          <mxGeometry x="640" y="350" width="100" height="70" as="geometry" />
        </mxCell>
        <mxCell id="rnlNIk4AzkPNb7HqihP6-38" value="" style="edgeStyle=orthogonalEdgeStyle;rounded=0;orthogonalLoop=1;jettySize=auto;html=1;entryX=0;entryY=0.5;entryDx=0;entryDy=0;fontSize=13;endArrow=block;endFill=1;" parent="rnlNIk4AzkPNb7HqihP6-1" source="rnlNIk4AzkPNb7HqihP6-28" target="rnlNIk4AzkPNb7HqihP6-37" edge="1">
          <mxGeometry relative="1" as="geometry">
            <mxPoint x="835" y="795" as="targetPoint" />
            <mxPoint x="655" y="795" as="sourcePoint" />
          </mxGeometry>
        </mxCell>
        <mxCell id="rnlNIk4AzkPNb7HqihP6-39" style="edgeStyle=orthogonalEdgeStyle;rounded=0;orthogonalLoop=1;jettySize=auto;html=1;fontSize=13;endArrow=block;endFill=0;dashed=1;startArrow=oval;startFill=0;jumpSize=6;startSize=10;" parent="rnlNIk4AzkPNb7HqihP6-1" edge="1">
          <mxGeometry relative="1" as="geometry">
            <mxPoint x="905" y="-40" as="sourcePoint" />
            <mxPoint x="905" y="350" as="targetPoint" />
            <Array as="points">
              <mxPoint x="905" y="330" />
              <mxPoint x="905" y="330" />
            </Array>
          </mxGeometry>
        </mxCell>
        <mxCell id="rnlNIk4AzkPNb7HqihP6-40" value="Проверка пароля на минимальную длину (&amp;gt; 6)" style="rounded=1;whiteSpace=wrap;html=1;container=1;collapsible=0;absoluteArcSize=1;arcSize=20;childLayout=stackLayout;horizontal=1;horizontalStack=0;resizeParent=1;resizeParentMax=0;resizeLast=0;fontSize=13;" parent="rnlNIk4AzkPNb7HqihP6-1" vertex="1">
          <mxGeometry x="750" y="350" width="100" height="70" as="geometry" />
        </mxCell>
        <mxCell id="rnlNIk4AzkPNb7HqihP6-41" style="edgeStyle=orthogonalEdgeStyle;rounded=0;orthogonalLoop=1;jettySize=auto;html=1;fontSize=13;endArrow=block;endFill=0;dashed=1;startArrow=oval;startFill=0;jumpSize=6;startSize=10;entryX=0.414;entryY=-0.02;entryDx=0;entryDy=0;entryPerimeter=0;" parent="rnlNIk4AzkPNb7HqihP6-1" edge="1">
          <mxGeometry relative="1" as="geometry">
            <mxPoint x="796" y="-29" as="sourcePoint" />
            <mxPoint x="797" y="360" as="targetPoint" />
            <Array as="points">
              <mxPoint x="796" y="16" />
              <mxPoint x="797" y="16" />
            </Array>
          </mxGeometry>
        </mxCell>
        <mxCell id="rnlNIk4AzkPNb7HqihP6-42" value="Backend-приложение" style="shape=mxgraph.bpmn.task;part=1;taskMarker=abstract;rectStyle=square;whiteSpace=wrap;fontSize=13;gradientColor=none;" parent="1" vertex="1">
          <mxGeometry x="1960" y="920" width="1170" height="40" as="geometry" />
        </mxCell>
        <mxCell id="rnlNIk4AzkPNb7HqihP6-43" style="edgeStyle=orthogonalEdgeStyle;rounded=0;orthogonalLoop=1;jettySize=auto;html=1;fontSize=13;endArrow=block;endFill=0;dashed=1;startArrow=oval;startFill=0;startSize=10;endSize=7;" parent="1" source="rnlNIk4AzkPNb7HqihP6-16" target="rnlNIk4AzkPNb7HqihP6-42" edge="1">
          <mxGeometry relative="1" as="geometry">
            <mxPoint x="2430" y="1060" as="sourcePoint" />
            <Array as="points">
              <mxPoint x="2430" y="990" />
              <mxPoint x="2430" y="990" />
            </Array>
          </mxGeometry>
        </mxCell>
        <mxCell id="rnlNIk4AzkPNb7HqihP6-44" style="edgeStyle=orthogonalEdgeStyle;rounded=0;orthogonalLoop=1;jettySize=auto;html=1;fontSize=13;endArrow=block;endFill=0;dashed=1;startArrow=oval;startFill=0;strokeColor=#000000;targetPerimeterSpacing=0;sketch=0;startSize=10;snapToPoint=1;fixDash=0;metaEdit=0;backgroundOutline=0;noJump=0;flowAnimation=0;orthogonal=0;enumerate=0;comic=0;shadow=0;" parent="1" source="rnlNIk4AzkPNb7HqihP6-28" edge="1">
          <mxGeometry relative="1" as="geometry">
            <mxPoint x="2440" y="1070" as="sourcePoint" />
            <mxPoint x="2560" y="959" as="targetPoint" />
            <Array as="points">
              <mxPoint x="2560" y="1080" />
              <mxPoint x="2560" y="1080" />
            </Array>
          </mxGeometry>
        </mxCell>
        <mxCell id="rnlNIk4AzkPNb7HqihP6-45" style="edgeStyle=orthogonalEdgeStyle;rounded=0;orthogonalLoop=1;jettySize=auto;html=1;fontSize=13;endArrow=block;endFill=0;dashed=1;startArrow=oval;startFill=0;jumpSize=6;startSize=10;entryX=0.414;entryY=-0.02;entryDx=0;entryDy=0;entryPerimeter=0;" parent="1" target="rnlNIk4AzkPNb7HqihP6-37" edge="1">
          <mxGeometry relative="1" as="geometry">
            <mxPoint x="2640" y="960" as="sourcePoint" />
            <mxPoint x="2640.42" y="1050" as="targetPoint" />
            <Array as="points">
              <mxPoint x="2640" y="1005" />
              <mxPoint x="2641" y="1005" />
            </Array>
          </mxGeometry>
        </mxCell>
      </root>
    </mxGraphModel>
  </diagram>
  <diagram name="Copy of BMNP" id="UwjNZeOwD-jJhXG5jrXb">
    <mxGraphModel dx="-1009" dy="251" grid="1" gridSize="10" guides="1" tooltips="1" connect="1" arrows="1" fold="1" page="1" pageScale="1" pageWidth="850" pageHeight="1100" math="0" shadow="0">
      <root>
        <mxCell id="Ze-qdoWi6paLkKqpUHG4-0" />
        <mxCell id="Ze-qdoWi6paLkKqpUHG4-1" parent="Ze-qdoWi6paLkKqpUHG4-0" />
        <mxCell id="Ze-qdoWi6paLkKqpUHG4-2" value="Администратор (библиотекарь)" style="swimlane;startSize=20;horizontal=0;" parent="Ze-qdoWi6paLkKqpUHG4-1" vertex="1">
          <mxGeometry x="1990" y="1020" width="1260" height="570" as="geometry" />
        </mxCell>
        <mxCell id="Ze-qdoWi6paLkKqpUHG4-3" style="edgeStyle=none;rounded=0;orthogonalLoop=1;jettySize=auto;html=1;entryX=0;entryY=0.5;entryDx=0;entryDy=0;endArrow=block;endFill=1;" parent="Ze-qdoWi6paLkKqpUHG4-2" source="Ze-qdoWi6paLkKqpUHG4-4" target="O4oXzyL5-pQt12Q0WKox-0" edge="1">
          <mxGeometry relative="1" as="geometry">
            <mxPoint x="140" y="282" as="targetPoint" />
          </mxGeometry>
        </mxCell>
        <mxCell id="Ze-qdoWi6paLkKqpUHG4-4" value="Добавить книгу" style="points=[[0.145,0.145,0],[0.5,0,0],[0.855,0.145,0],[1,0.5,0],[0.855,0.855,0],[0.5,1,0],[0.145,0.855,0],[0,0.5,0]];shape=mxgraph.bpmn.event;html=1;verticalLabelPosition=bottom;labelBackgroundColor=#ffffff;verticalAlign=top;align=center;perimeter=ellipsePerimeter;outlineConnect=0;aspect=fixed;outline=standard;symbol=general;" parent="Ze-qdoWi6paLkKqpUHG4-2" vertex="1">
          <mxGeometry x="42.25" y="259.75" width="44.5" height="44.5" as="geometry" />
        </mxCell>
        <mxCell id="O4oXzyL5-pQt12Q0WKox-0" value="Открыть страницу добавления книги" style="rounded=1;whiteSpace=wrap;html=1;container=1;collapsible=0;absoluteArcSize=1;arcSize=20;childLayout=stackLayout;horizontal=1;horizontalStack=0;resizeParent=1;resizeParentMax=0;resizeLast=0;fontSize=13;" parent="Ze-qdoWi6paLkKqpUHG4-2" vertex="1">
          <mxGeometry x="130" y="247" width="100" height="70" as="geometry" />
        </mxCell>
        <mxCell id="O4oXzyL5-pQt12Q0WKox-1" value="Ввести данные в поля" style="rounded=1;whiteSpace=wrap;html=1;container=1;collapsible=0;absoluteArcSize=1;arcSize=20;childLayout=stackLayout;horizontal=1;horizontalStack=0;resizeParent=1;resizeParentMax=0;resizeLast=0;fontSize=13;" parent="Ze-qdoWi6paLkKqpUHG4-2" vertex="1">
          <mxGeometry x="270" y="247" width="100" height="70" as="geometry" />
        </mxCell>
        <mxCell id="O4oXzyL5-pQt12Q0WKox-3" value="" style="edgeStyle=orthogonalEdgeStyle;rounded=0;orthogonalLoop=1;jettySize=auto;html=1;exitX=1;exitY=0.5;exitDx=0;exitDy=0;entryX=0;entryY=0.5;entryDx=0;entryDy=0;" parent="Ze-qdoWi6paLkKqpUHG4-2" source="O4oXzyL5-pQt12Q0WKox-0" target="O4oXzyL5-pQt12Q0WKox-1" edge="1">
          <mxGeometry relative="1" as="geometry">
            <mxPoint x="313" y="281.79999999999995" as="sourcePoint" />
            <mxPoint x="260" y="281.79999999999995" as="targetPoint" />
          </mxGeometry>
        </mxCell>
        <mxCell id="LXPaiqAn3I-K1hfInDRL-0" value="Отправить данные&lt;br&gt;на проверку" style="points=[[0.145,0.145,0],[0.5,0,0],[0.855,0.145,0],[1,0.5,0],[0.855,0.855,0],[0.5,1,0],[0.145,0.855,0],[0,0.5,0]];shape=mxgraph.bpmn.event;html=1;verticalLabelPosition=bottom;labelBackgroundColor=#ffffff;verticalAlign=top;align=center;perimeter=ellipsePerimeter;outlineConnect=0;aspect=fixed;outline=catching;symbol=message;fontSize=13;" parent="Ze-qdoWi6paLkKqpUHG4-2" vertex="1">
          <mxGeometry x="400" y="257" width="50" height="50" as="geometry" />
        </mxCell>
        <mxCell id="LXPaiqAn3I-K1hfInDRL-1" value="" style="edgeStyle=orthogonalEdgeStyle;rounded=0;orthogonalLoop=1;jettySize=auto;html=1;exitX=1;exitY=0.5;exitDx=0;exitDy=0;entryX=0;entryY=0.5;entryDx=0;entryDy=0;entryPerimeter=0;" parent="Ze-qdoWi6paLkKqpUHG4-2" target="LXPaiqAn3I-K1hfInDRL-0" edge="1">
          <mxGeometry relative="1" as="geometry">
            <mxPoint x="370" y="281.74" as="sourcePoint" />
            <mxPoint x="410" y="281.74" as="targetPoint" />
          </mxGeometry>
        </mxCell>
        <mxCell id="-al3xMKfdTsfS8uWVaPy-0" style="edgeStyle=orthogonalEdgeStyle;rounded=0;orthogonalLoop=1;jettySize=auto;html=1;fontSize=13;endArrow=block;endFill=0;dashed=1;startArrow=oval;startFill=0;startSize=10;endSize=7;" parent="Ze-qdoWi6paLkKqpUHG4-2" edge="1">
          <mxGeometry relative="1" as="geometry">
            <mxPoint x="424.5799999999999" y="257" as="sourcePoint" />
            <Array as="points" />
            <mxPoint x="424" y="-60" as="targetPoint" />
          </mxGeometry>
        </mxCell>
        <mxCell id="cvUzIygOZcomsr0Z3AsD-0" value="" style="points=[[0.25,0.25,0],[0.5,0,0],[0.75,0.25,0],[1,0.5,0],[0.75,0.75,0],[0.5,1,0],[0.25,0.75,0],[0,0.5,0]];shape=mxgraph.bpmn.gateway2;html=1;verticalLabelPosition=bottom;labelBackgroundColor=#ffffff;verticalAlign=top;align=center;perimeter=rhombusPerimeter;outlineConnect=0;outline=none;symbol=none;gwType=exclusive;" parent="Ze-qdoWi6paLkKqpUHG4-2" vertex="1">
          <mxGeometry x="985" y="255.5" width="50" height="50" as="geometry" />
        </mxCell>
        <mxCell id="cvUzIygOZcomsr0Z3AsD-1" style="edgeStyle=orthogonalEdgeStyle;rounded=0;orthogonalLoop=1;jettySize=auto;html=1;fontSize=13;endArrow=block;endFill=1;" parent="Ze-qdoWi6paLkKqpUHG4-2" source="cvUzIygOZcomsr0Z3AsD-2" edge="1">
          <mxGeometry relative="1" as="geometry">
            <mxPoint x="180" y="317" as="targetPoint" />
          </mxGeometry>
        </mxCell>
        <mxCell id="cvUzIygOZcomsr0Z3AsD-2" value="Сообщить об ошибке" style="rounded=1;whiteSpace=wrap;html=1;container=1;collapsible=0;absoluteArcSize=1;arcSize=20;childLayout=stackLayout;horizontal=1;horizontalStack=0;resizeParent=1;resizeParentMax=0;resizeLast=0;fontSize=13;" parent="Ze-qdoWi6paLkKqpUHG4-2" vertex="1">
          <mxGeometry x="385" y="372" width="100" height="70" as="geometry" />
        </mxCell>
        <mxCell id="cvUzIygOZcomsr0Z3AsD-3" style="edgeStyle=orthogonalEdgeStyle;rounded=0;orthogonalLoop=1;jettySize=auto;html=1;fontSize=13;endArrow=block;endFill=1;entryX=1;entryY=0.5;entryDx=0;entryDy=0;exitX=0.5;exitY=1;exitDx=0;exitDy=0;exitPerimeter=0;" parent="Ze-qdoWi6paLkKqpUHG4-2" source="cvUzIygOZcomsr0Z3AsD-0" target="cvUzIygOZcomsr0Z3AsD-2" edge="1">
          <mxGeometry relative="1" as="geometry">
            <mxPoint x="620" y="407" as="targetPoint" />
            <Array as="points">
              <mxPoint x="1010" y="407" />
            </Array>
          </mxGeometry>
        </mxCell>
        <mxCell id="qHMa4dL62i2L9k2CvKw1-0" value="Проверка текстовых полей" style="rounded=1;whiteSpace=wrap;html=1;container=1;collapsible=0;absoluteArcSize=1;arcSize=20;childLayout=stackLayout;horizontal=1;horizontalStack=0;resizeParent=1;resizeParentMax=0;resizeLast=0;fontSize=13;" parent="Ze-qdoWi6paLkKqpUHG4-2" vertex="1">
          <mxGeometry x="500" y="247" width="100" height="70" as="geometry" />
        </mxCell>
        <mxCell id="qHMa4dL62i2L9k2CvKw1-1" value="" style="edgeStyle=orthogonalEdgeStyle;rounded=0;orthogonalLoop=1;jettySize=auto;html=1;exitX=1;exitY=0.5;exitDx=0;exitDy=0;entryX=0;entryY=0.5;entryDx=0;entryDy=0;" parent="Ze-qdoWi6paLkKqpUHG4-2" target="qHMa4dL62i2L9k2CvKw1-0" edge="1">
          <mxGeometry relative="1" as="geometry">
            <mxPoint x="450" y="281.77" as="sourcePoint" />
            <mxPoint x="490" y="281.77" as="targetPoint" />
          </mxGeometry>
        </mxCell>
        <mxCell id="qHMa4dL62i2L9k2CvKw1-2" value="Проверка индекса ББК на вхождение в перечень индексов" style="rounded=1;whiteSpace=wrap;html=1;container=1;collapsible=0;absoluteArcSize=1;arcSize=20;childLayout=stackLayout;horizontal=1;horizontalStack=0;resizeParent=1;resizeParentMax=0;resizeLast=0;fontSize=13;" parent="Ze-qdoWi6paLkKqpUHG4-2" vertex="1">
          <mxGeometry x="630" y="244" width="130" height="73" as="geometry" />
        </mxCell>
        <mxCell id="qHMa4dL62i2L9k2CvKw1-3" value="" style="edgeStyle=orthogonalEdgeStyle;rounded=0;orthogonalLoop=1;jettySize=auto;html=1;exitX=1;exitY=0.5;exitDx=0;exitDy=0;" parent="Ze-qdoWi6paLkKqpUHG4-2" edge="1">
          <mxGeometry relative="1" as="geometry">
            <mxPoint x="600" y="281.6199999999999" as="sourcePoint" />
            <mxPoint x="630" y="282" as="targetPoint" />
          </mxGeometry>
        </mxCell>
        <mxCell id="6PvSloDjL64qA7VETUsj-0" value="Проверка существования автора" style="rounded=1;whiteSpace=wrap;html=1;container=1;collapsible=0;absoluteArcSize=1;arcSize=20;childLayout=stackLayout;horizontal=1;horizontalStack=0;resizeParent=1;resizeParentMax=0;resizeLast=0;fontSize=13;" vertex="1" parent="Ze-qdoWi6paLkKqpUHG4-2">
          <mxGeometry x="790" y="244" width="130" height="73" as="geometry" />
        </mxCell>
        <mxCell id="6PvSloDjL64qA7VETUsj-1" value="" style="edgeStyle=orthogonalEdgeStyle;rounded=0;orthogonalLoop=1;jettySize=auto;html=1;exitX=1;exitY=0.5;exitDx=0;exitDy=0;" edge="1" parent="Ze-qdoWi6paLkKqpUHG4-2">
          <mxGeometry relative="1" as="geometry">
            <mxPoint x="760" y="280.30999999999995" as="sourcePoint" />
            <mxPoint x="790" y="280.69000000000005" as="targetPoint" />
          </mxGeometry>
        </mxCell>
        <mxCell id="6PvSloDjL64qA7VETUsj-2" value="" style="edgeStyle=orthogonalEdgeStyle;rounded=0;orthogonalLoop=1;jettySize=auto;html=1;exitX=1;exitY=0.5;exitDx=0;exitDy=0;entryX=0;entryY=0.5;entryDx=0;entryDy=0;entryPerimeter=0;" edge="1" parent="Ze-qdoWi6paLkKqpUHG4-2" source="6PvSloDjL64qA7VETUsj-0" target="cvUzIygOZcomsr0Z3AsD-0">
          <mxGeometry relative="1" as="geometry">
            <mxPoint x="920" y="280.30999999999995" as="sourcePoint" />
            <mxPoint x="950" y="280.69000000000005" as="targetPoint" />
          </mxGeometry>
        </mxCell>
        <mxCell id="p93lWzNo3qpTGEKoK-pJ-0" value="Данные корректны?" style="text;html=1;align=center;verticalAlign=middle;resizable=0;points=[];autosize=1;strokeColor=none;fillColor=none;" vertex="1" parent="Ze-qdoWi6paLkKqpUHG4-2">
          <mxGeometry x="895" y="214" width="140" height="30" as="geometry" />
        </mxCell>
        <mxCell id="TqGV6wUi6e0KRKoNjl78-0" value="Открыть страницу добавленной книги" style="rounded=1;whiteSpace=wrap;html=1;container=1;collapsible=0;absoluteArcSize=1;arcSize=20;childLayout=stackLayout;horizontal=1;horizontalStack=0;resizeParent=1;resizeParentMax=0;resizeLast=0;fontSize=13;" vertex="1" parent="Ze-qdoWi6paLkKqpUHG4-2">
          <mxGeometry x="1060" y="244" width="130" height="73" as="geometry" />
        </mxCell>
        <mxCell id="TqGV6wUi6e0KRKoNjl78-1" value="" style="edgeStyle=orthogonalEdgeStyle;rounded=0;orthogonalLoop=1;jettySize=auto;html=1;exitX=1;exitY=0.5;exitDx=0;exitDy=0;exitPerimeter=0;entryX=0;entryY=0.5;entryDx=0;entryDy=0;" edge="1" parent="Ze-qdoWi6paLkKqpUHG4-2" source="cvUzIygOZcomsr0Z3AsD-0" target="TqGV6wUi6e0KRKoNjl78-0">
          <mxGeometry relative="1" as="geometry">
            <mxPoint x="1035" y="279.90999999999985" as="sourcePoint" />
            <mxPoint x="1090" y="280" as="targetPoint" />
          </mxGeometry>
        </mxCell>
        <mxCell id="F_Msnpo6O2JsmABejFFN-0" value="Да" style="edgeLabel;html=1;align=center;verticalAlign=middle;resizable=0;points=[];fontSize=13;" vertex="1" connectable="0" parent="Ze-qdoWi6paLkKqpUHG4-2">
          <mxGeometry x="1035.0011111111107" y="243.99999999999977" as="geometry">
            <mxPoint x="15" y="21" as="offset" />
          </mxGeometry>
        </mxCell>
        <mxCell id="Ze-qdoWi6paLkKqpUHG4-43" value="Backend-приложение" style="shape=mxgraph.bpmn.task;part=1;taskMarker=abstract;rectStyle=square;whiteSpace=wrap;fontSize=13;gradientColor=none;" parent="Ze-qdoWi6paLkKqpUHG4-1" vertex="1">
          <mxGeometry x="1960" y="920" width="1290" height="40" as="geometry" />
        </mxCell>
        <mxCell id="pc_hVM53E1n5XP7B11bS-0" style="edgeStyle=orthogonalEdgeStyle;rounded=0;orthogonalLoop=1;jettySize=auto;html=1;fontSize=13;endArrow=block;endFill=0;dashed=1;startArrow=oval;startFill=0;jumpSize=6;startSize=10;entryX=0.5;entryY=0;entryDx=0;entryDy=0;" edge="1" parent="Ze-qdoWi6paLkKqpUHG4-1" target="qHMa4dL62i2L9k2CvKw1-0">
          <mxGeometry relative="1" as="geometry">
            <mxPoint x="2540" y="960" as="sourcePoint" />
            <mxPoint x="2540.42" y="1050" as="targetPoint" />
            <Array as="points" />
          </mxGeometry>
        </mxCell>
        <mxCell id="pc_hVM53E1n5XP7B11bS-1" style="edgeStyle=orthogonalEdgeStyle;rounded=0;orthogonalLoop=1;jettySize=auto;html=1;fontSize=13;endArrow=block;endFill=0;dashed=1;startArrow=oval;startFill=0;jumpSize=6;startSize=10;entryX=0.46;entryY=-0.011;entryDx=0;entryDy=0;entryPerimeter=0;" edge="1" parent="Ze-qdoWi6paLkKqpUHG4-1" target="qHMa4dL62i2L9k2CvKw1-2">
          <mxGeometry relative="1" as="geometry">
            <mxPoint x="2680" y="960" as="sourcePoint" />
            <mxPoint x="2680" y="1267" as="targetPoint" />
            <Array as="points" />
          </mxGeometry>
        </mxCell>
        <mxCell id="pc_hVM53E1n5XP7B11bS-2" style="edgeStyle=orthogonalEdgeStyle;rounded=0;orthogonalLoop=1;jettySize=auto;html=1;fontSize=13;endArrow=block;endFill=0;dashed=1;startArrow=oval;startFill=0;jumpSize=6;startSize=10;entryX=0.5;entryY=0;entryDx=0;entryDy=0;" edge="1" parent="Ze-qdoWi6paLkKqpUHG4-1">
          <mxGeometry relative="1" as="geometry">
            <mxPoint x="2840" y="960" as="sourcePoint" />
            <mxPoint x="2840" y="1267" as="targetPoint" />
            <Array as="points" />
          </mxGeometry>
        </mxCell>
      </root>
    </mxGraphModel>
  </diagram>
  <diagram name="Copy of Copy of BMNP" id="iFMi_gD9n2IibYUNw47E">
    <mxGraphModel dx="893" dy="943" grid="1" gridSize="10" guides="1" tooltips="1" connect="1" arrows="1" fold="1" page="1" pageScale="1" pageWidth="850" pageHeight="1100" math="0" shadow="0">
      <root>
        <mxCell id="KTnkK8Xj5S-LCBd2jeQf-0" />
        <mxCell id="KTnkK8Xj5S-LCBd2jeQf-1" parent="KTnkK8Xj5S-LCBd2jeQf-0" />
        <mxCell id="KTnkK8Xj5S-LCBd2jeQf-2" value="Пользователь" style="swimlane;startSize=20;horizontal=0;" vertex="1" parent="KTnkK8Xj5S-LCBd2jeQf-1">
          <mxGeometry x="1990" y="1020" width="1260" height="570" as="geometry" />
        </mxCell>
        <mxCell id="KTnkK8Xj5S-LCBd2jeQf-3" style="edgeStyle=none;rounded=0;orthogonalLoop=1;jettySize=auto;html=1;entryX=0;entryY=0.5;entryDx=0;entryDy=0;endArrow=block;endFill=1;" edge="1" parent="KTnkK8Xj5S-LCBd2jeQf-2" source="KTnkK8Xj5S-LCBd2jeQf-4" target="KTnkK8Xj5S-LCBd2jeQf-5">
          <mxGeometry relative="1" as="geometry">
            <mxPoint x="140" y="282" as="targetPoint" />
          </mxGeometry>
        </mxCell>
        <mxCell id="KTnkK8Xj5S-LCBd2jeQf-4" value="Найти книгу" style="points=[[0.145,0.145,0],[0.5,0,0],[0.855,0.145,0],[1,0.5,0],[0.855,0.855,0],[0.5,1,0],[0.145,0.855,0],[0,0.5,0]];shape=mxgraph.bpmn.event;html=1;verticalLabelPosition=bottom;labelBackgroundColor=#ffffff;verticalAlign=top;align=center;perimeter=ellipsePerimeter;outlineConnect=0;aspect=fixed;outline=standard;symbol=general;" vertex="1" parent="KTnkK8Xj5S-LCBd2jeQf-2">
          <mxGeometry x="42.25" y="259.75" width="44.5" height="44.5" as="geometry" />
        </mxCell>
        <mxCell id="KTnkK8Xj5S-LCBd2jeQf-5" value="Открыть поиск" style="rounded=1;whiteSpace=wrap;html=1;container=1;collapsible=0;absoluteArcSize=1;arcSize=20;childLayout=stackLayout;horizontal=1;horizontalStack=0;resizeParent=1;resizeParentMax=0;resizeLast=0;fontSize=13;" vertex="1" parent="KTnkK8Xj5S-LCBd2jeQf-2">
          <mxGeometry x="130" y="247" width="100" height="70" as="geometry" />
        </mxCell>
        <mxCell id="KTnkK8Xj5S-LCBd2jeQf-6" value="&lt;div&gt;Ввести название книги&lt;/div&gt;" style="rounded=1;whiteSpace=wrap;html=1;container=1;collapsible=0;absoluteArcSize=1;arcSize=20;childLayout=stackLayout;horizontal=1;horizontalStack=0;resizeParent=1;resizeParentMax=0;resizeLast=0;fontSize=13;" vertex="1" parent="KTnkK8Xj5S-LCBd2jeQf-2">
          <mxGeometry x="270" y="247" width="100" height="70" as="geometry" />
        </mxCell>
        <mxCell id="KTnkK8Xj5S-LCBd2jeQf-7" value="" style="edgeStyle=orthogonalEdgeStyle;rounded=0;orthogonalLoop=1;jettySize=auto;html=1;exitX=1;exitY=0.5;exitDx=0;exitDy=0;entryX=0;entryY=0.5;entryDx=0;entryDy=0;" edge="1" parent="KTnkK8Xj5S-LCBd2jeQf-2" source="KTnkK8Xj5S-LCBd2jeQf-5" target="KTnkK8Xj5S-LCBd2jeQf-6">
          <mxGeometry relative="1" as="geometry">
            <mxPoint x="313" y="281.79999999999995" as="sourcePoint" />
            <mxPoint x="260" y="281.79999999999995" as="targetPoint" />
          </mxGeometry>
        </mxCell>
        <mxCell id="KTnkK8Xj5S-LCBd2jeQf-9" value="" style="edgeStyle=orthogonalEdgeStyle;rounded=0;orthogonalLoop=1;jettySize=auto;html=1;exitX=1;exitY=0.5;exitDx=0;exitDy=0;entryX=0;entryY=0.5;entryDx=0;entryDy=0;" edge="1" parent="KTnkK8Xj5S-LCBd2jeQf-2" target="_NWIlhnw0C6fab1-S8yi-0">
          <mxGeometry relative="1" as="geometry">
            <mxPoint x="370" y="281.74" as="sourcePoint" />
            <mxPoint x="400" y="282.0000000000002" as="targetPoint" />
          </mxGeometry>
        </mxCell>
        <mxCell id="KTnkK8Xj5S-LCBd2jeQf-10" style="edgeStyle=orthogonalEdgeStyle;rounded=0;orthogonalLoop=1;jettySize=auto;html=1;fontSize=13;endArrow=block;endFill=0;dashed=1;startArrow=oval;startFill=0;startSize=10;endSize=7;entryX=0.493;entryY=0.986;entryDx=0;entryDy=0;entryPerimeter=0;" edge="1" parent="KTnkK8Xj5S-LCBd2jeQf-2" target="KTnkK8Xj5S-LCBd2jeQf-26">
          <mxGeometry relative="1" as="geometry">
            <mxPoint x="605.02" y="257" as="sourcePoint" />
            <Array as="points" />
            <mxPoint x="604.46" y="-13" as="targetPoint" />
          </mxGeometry>
        </mxCell>
        <mxCell id="_NWIlhnw0C6fab1-S8yi-0" value="Ввести ББК индекс" style="rounded=1;whiteSpace=wrap;html=1;container=1;collapsible=0;absoluteArcSize=1;arcSize=20;childLayout=stackLayout;horizontal=1;horizontalStack=0;resizeParent=1;resizeParentMax=0;resizeLast=0;fontSize=13;" vertex="1" parent="KTnkK8Xj5S-LCBd2jeQf-2">
          <mxGeometry x="410" y="247" width="100" height="70" as="geometry" />
        </mxCell>
        <mxCell id="TMkRJtIfARnCB3EFjxZk-0" value="&lt;div&gt;Отправить запрос с&lt;/div&gt;&lt;div&gt;данными о книге&lt;br&gt;&lt;/div&gt;" style="points=[[0.145,0.145,0],[0.5,0,0],[0.855,0.145,0],[1,0.5,0],[0.855,0.855,0],[0.5,1,0],[0.145,0.855,0],[0,0.5,0]];shape=mxgraph.bpmn.event;html=1;verticalLabelPosition=bottom;labelBackgroundColor=#ffffff;verticalAlign=top;align=center;perimeter=ellipsePerimeter;outlineConnect=0;aspect=fixed;outline=catching;symbol=message;fontSize=13;" vertex="1" parent="KTnkK8Xj5S-LCBd2jeQf-2">
          <mxGeometry x="580" y="257" width="50" height="50" as="geometry" />
        </mxCell>
        <mxCell id="TMkRJtIfARnCB3EFjxZk-1" value="" style="edgeStyle=orthogonalEdgeStyle;rounded=0;orthogonalLoop=1;jettySize=auto;html=1;exitX=1;exitY=0.5;exitDx=0;exitDy=0;" edge="1" parent="KTnkK8Xj5S-LCBd2jeQf-2" target="TMkRJtIfARnCB3EFjxZk-0">
          <mxGeometry relative="1" as="geometry">
            <mxPoint x="510" y="281.6200000000001" as="sourcePoint" />
            <mxPoint x="550" y="281.8800000000001" as="targetPoint" />
          </mxGeometry>
        </mxCell>
        <mxCell id="TMkRJtIfARnCB3EFjxZk-2" value="" style="edgeStyle=orthogonalEdgeStyle;rounded=0;orthogonalLoop=1;jettySize=auto;html=1;exitX=1;exitY=0.5;exitDx=0;exitDy=0;" edge="1" parent="KTnkK8Xj5S-LCBd2jeQf-2">
          <mxGeometry relative="1" as="geometry">
            <mxPoint x="630" y="281.5600000000002" as="sourcePoint" />
            <mxPoint x="700" y="281.94000000000005" as="targetPoint" />
          </mxGeometry>
        </mxCell>
        <mxCell id="6Nzs-W5R9j4Q5m3U_l_8-0" value="Получение результата поиска" style="rounded=1;whiteSpace=wrap;html=1;container=1;collapsible=0;absoluteArcSize=1;arcSize=20;childLayout=stackLayout;horizontal=1;horizontalStack=0;resizeParent=1;resizeParentMax=0;resizeLast=0;fontSize=13;" vertex="1" parent="KTnkK8Xj5S-LCBd2jeQf-2">
          <mxGeometry x="700" y="247" width="100" height="70" as="geometry" />
        </mxCell>
        <mxCell id="KTnkK8Xj5S-LCBd2jeQf-28" style="edgeStyle=orthogonalEdgeStyle;rounded=0;orthogonalLoop=1;jettySize=auto;html=1;fontSize=13;endArrow=block;endFill=0;dashed=1;startArrow=oval;startFill=0;jumpSize=6;startSize=10;entryX=0.46;entryY=-0.011;entryDx=0;entryDy=0;entryPerimeter=0;" edge="1" parent="KTnkK8Xj5S-LCBd2jeQf-2">
          <mxGeometry relative="1" as="geometry">
            <mxPoint x="749.8400000000001" y="-56.200000000000045" as="sourcePoint" />
            <mxPoint x="749.6400000000003" y="246.99699999999984" as="targetPoint" />
            <Array as="points" />
          </mxGeometry>
        </mxCell>
        <mxCell id="zjUe3-2NhNgxl0iNJSRU-3" style="edgeStyle=orthogonalEdgeStyle;rounded=0;orthogonalLoop=1;jettySize=auto;html=1;fontSize=13;endArrow=block;endFill=1;exitX=0.5;exitY=1;exitDx=0;exitDy=0;exitPerimeter=0;entryX=1.013;entryY=0.487;entryDx=0;entryDy=0;entryPerimeter=0;" edge="1" parent="KTnkK8Xj5S-LCBd2jeQf-2" target="zjUe3-2NhNgxl0iNJSRU-2">
          <mxGeometry relative="1" as="geometry">
            <mxPoint x="500" y="406" as="targetPoint" />
            <Array as="points">
              <mxPoint x="915" y="406" />
            </Array>
            <mxPoint x="915" y="304.25" as="sourcePoint" />
          </mxGeometry>
        </mxCell>
        <mxCell id="zjUe3-2NhNgxl0iNJSRU-0" value="" style="points=[[0.25,0.25,0],[0.5,0,0],[0.75,0.25,0],[1,0.5,0],[0.75,0.75,0],[0.5,1,0],[0.25,0.75,0],[0,0.5,0]];shape=mxgraph.bpmn.gateway2;html=1;verticalLabelPosition=bottom;labelBackgroundColor=#ffffff;verticalAlign=top;align=center;perimeter=rhombusPerimeter;outlineConnect=0;outline=none;symbol=none;gwType=exclusive;" vertex="1" parent="KTnkK8Xj5S-LCBd2jeQf-2">
          <mxGeometry x="890" y="257" width="50" height="50" as="geometry" />
        </mxCell>
        <mxCell id="zjUe3-2NhNgxl0iNJSRU-4" value="" style="edgeStyle=orthogonalEdgeStyle;rounded=0;orthogonalLoop=1;jettySize=auto;html=1;exitX=1;exitY=0.5;exitDx=0;exitDy=0;entryX=0;entryY=0.5;entryDx=0;entryDy=0;entryPerimeter=0;" edge="1" parent="KTnkK8Xj5S-LCBd2jeQf-2" target="zjUe3-2NhNgxl0iNJSRU-0">
          <mxGeometry relative="1" as="geometry">
            <mxPoint x="800" y="281.58000000000015" as="sourcePoint" />
            <mxPoint x="870" y="281.96000000000004" as="targetPoint" />
          </mxGeometry>
        </mxCell>
        <mxCell id="BlQSt_6CYSljy6jBMrZm-0" value="&lt;div&gt;Нашлась хотя бы&amp;nbsp;&lt;/div&gt;&lt;div&gt;1 книга?&lt;/div&gt;" style="text;html=1;align=center;verticalAlign=middle;resizable=0;points=[];autosize=1;strokeColor=none;fillColor=none;" vertex="1" parent="KTnkK8Xj5S-LCBd2jeQf-2">
          <mxGeometry x="800" y="212" width="120" height="40" as="geometry" />
        </mxCell>
        <mxCell id="BlQSt_6CYSljy6jBMrZm-1" value="" style="edgeStyle=orthogonalEdgeStyle;rounded=0;orthogonalLoop=1;jettySize=auto;html=1;exitX=1;exitY=0.5;exitDx=0;exitDy=0;entryX=0;entryY=0.5;entryDx=0;entryDy=0;entryPerimeter=0;" edge="1" parent="KTnkK8Xj5S-LCBd2jeQf-2">
          <mxGeometry relative="1" as="geometry">
            <mxPoint x="940" y="281.5300000000002" as="sourcePoint" />
            <mxPoint x="1030" y="281.95000000000005" as="targetPoint" />
          </mxGeometry>
        </mxCell>
        <mxCell id="j8HRMJgT0Jp2BJ8HDbWI-0" value="Отобразить найденные книги" style="rounded=1;whiteSpace=wrap;html=1;container=1;collapsible=0;absoluteArcSize=1;arcSize=20;childLayout=stackLayout;horizontal=1;horizontalStack=0;resizeParent=1;resizeParentMax=0;resizeLast=0;fontSize=13;" vertex="1" parent="KTnkK8Xj5S-LCBd2jeQf-2">
          <mxGeometry x="1030" y="245.5" width="130" height="73" as="geometry" />
        </mxCell>
        <mxCell id="l0-sU7XrW26EggZj2rWP-0" value="Да" style="edgeLabel;html=1;align=center;verticalAlign=middle;resizable=0;points=[];fontSize=13;" vertex="1" connectable="0" parent="KTnkK8Xj5S-LCBd2jeQf-2">
          <mxGeometry x="985.0011111111107" y="239.99999999999977" as="geometry">
            <mxPoint x="15" y="21" as="offset" />
          </mxGeometry>
        </mxCell>
        <mxCell id="KTnkK8Xj5S-LCBd2jeQf-26" value="Backend-приложение" style="shape=mxgraph.bpmn.task;part=1;taskMarker=abstract;rectStyle=square;whiteSpace=wrap;fontSize=13;gradientColor=none;" vertex="1" parent="KTnkK8Xj5S-LCBd2jeQf-1">
          <mxGeometry x="1960" y="920" width="1290" height="40" as="geometry" />
        </mxCell>
        <mxCell id="zjUe3-2NhNgxl0iNJSRU-1" style="edgeStyle=orthogonalEdgeStyle;rounded=0;orthogonalLoop=1;jettySize=auto;html=1;fontSize=13;endArrow=block;endFill=1;" edge="1" parent="KTnkK8Xj5S-LCBd2jeQf-1" source="zjUe3-2NhNgxl0iNJSRU-2">
          <mxGeometry relative="1" as="geometry">
            <mxPoint x="2170" y="1337" as="targetPoint" />
          </mxGeometry>
        </mxCell>
        <mxCell id="zjUe3-2NhNgxl0iNJSRU-2" value="Сообщить о пустом результате" style="rounded=1;whiteSpace=wrap;html=1;container=1;collapsible=0;absoluteArcSize=1;arcSize=20;childLayout=stackLayout;horizontal=1;horizontalStack=0;resizeParent=1;resizeParentMax=0;resizeLast=0;fontSize=13;" vertex="1" parent="KTnkK8Xj5S-LCBd2jeQf-1">
          <mxGeometry x="2375" y="1392" width="100" height="70" as="geometry" />
        </mxCell>
      </root>
    </mxGraphModel>
  </diagram>
</mxfile>
